<svg width="0" height="0" class="hidden">
    <symbol  id="phone" version="1.1" xml:space="preserve" xmlns="http://www.w3.org/2000/svg" xmlns:xlink="http://www.w3.org/1999/xlink" viewBox="0 0 500 500">
      <path d="M322.2,154.8H189.7c-19.3,0-35,15.7-35,35v132.5c0,19.3,15.7,35,35,35h132.5c19.3,0,35-15.7,35-35V189.8  C357.2,170.5,341.5,154.8,322.2,154.8z M240,186.5l0.1,0.2l-0.5,0L240,186.5z M320.8,292.2l-1.5,2.8c-5.8,11.1-18.5,16.8-30.6,13.6  c-18.8-5.1-37.2-15.5-51.4-30c-14.5-14.3-24.9-32.6-30-51.4c-3.3-12.1,2.5-24.8,13.6-30.6c1.2-0.6,2.3-1.2,3.4-1.8  c3.4-1.8,7.5-0.7,9.6,2.5c3.7,5.6,8.9,13.7,15.2,23.3c1.9,2.9,1.5,6.8-1,9.3l-5.6,5.6c-2.8,2.8-3.6,7.1-1.9,10.8  c5.9,12.9,16.2,23.2,29.1,29.1c3.6,1.7,7.9,0.9,10.8-1.9l5.1-5.1c2.5-2.5,6.3-2.9,9.3-1l23.5,15.3  C321.5,284.7,322.6,288.8,320.8,292.2z"></path>
    </symbol>
    <symbol enable-background="new 0 0 512 512" id="telegram" version="1.1" xml:space="preserve" xmlns="http://www.w3.org/2000/svg" xmlns:xlink="http://www.w3.org/1999/xlink" viewBox="0 0 512 512">
      <g>
        <path d="M295.5,221l-69.8,42c-1.2,0.7-1.7,2.1-1.3,3.4l9.1,32.6c0.3,0.9,1.6,0.8,1.7-0.2l2-22.5   c0.1-1.7,0.9-3.3,2.2-4.4l57-49.7C297,221.6,296.2,220.5,295.5,221z" fill="#231F20"></path>
        <path d="M322.3,154.8H189.8c-19.3,0-35,15.7-35,35v132.5c0,19.3,15.7,35,35,35h132.5c19.3,0,35-15.7,35-35V189.8   C357.3,170.5,341.5,154.8,322.3,154.8z M328.1,199l-25.6,116.3c-0.9,3.9-5.5,5.5-8.6,3l-30-23.8c-2.2-1.8-5.5-1.5-7.4,0.7   L241.1,313c-2.7,3.2-7.9,2.1-9.1-1.8l-13.6-41.9c-0.6-1.7-2-3.1-3.7-3.5l-26.9-7.1c-4.9-1.3-5.4-8.1-0.7-10.1l133.7-55.7   C324.8,191.3,329,194.8,328.1,199z"></path>
      </g>
    </symbol>
    <symbol enable-background="new 0 0 512 512" id="gmail" version="1.1" xml:space="preserve" xmlns="http://www.w3.org/2000/svg" xmlns:xlink="http://www.w3.org/1999/xlink" viewBox="0 0 512 512">
      <path d="M322.2,154.8H189.8c-19.3,0-35,15.7-35,35v132.5c0,19.3,15.7,35,35,35h132.5c19.3,0,35-15.7,35-35V189.8  C357.2,170.5,341.5,154.8,322.2,154.8z M328.1,256c0,39.8-32.3,72.1-72.1,72.1s-72.1-32.3-72.1-72.1s32.3-72.1,72.1-72.1  c24,0,46.3,11.9,59.8,31.8l-24.9,16.8c-7.9-11.6-20.9-18.6-34.9-18.6c-23.2,0-42.1,18.9-42.1,42.1s18.9,42.1,42.1,42.1  c17.9,0,33.3-11.3,39.3-27.1H256v-30h72.1V256z"></path>
    </symbol>
    <symbol enable-background="new 0 0 512 512" id="location" version="1.1" xml:space="preserve" xmlns="http://www.w3.org/2000/svg" xmlns:xlink="http://www.w3.org/1999/xlink" viewBox="0 0 512 512">
        <g>
          <path d="M275.5,215.9c-10.8-10.8-28.2-10.8-39,0h0c-10.8,10.8-10.8,28.2,0,39h0c10.8,10.8,28.2,10.8,39,0h0   C286.3,244.1,286.3,226.7,275.5,215.9L275.5,215.9z"></path>
          <path d="M322.3,154.8H189.8c-19.3,0-35,15.7-35,35v132.5c0,19.3,15.7,35,35,35h132.5c19.3,0,35-15.7,35-35V189.8   C357.3,170.5,341.5,154.8,322.3,154.8z M302.6,267.8L256,334.1l-46.6-66.3c-16-22.7-13.3-53.5,6.3-73.1v0   c22.3-22.3,58.4-22.3,80.7,0v0C315.9,214.2,318.6,245.1,302.6,267.8z"></path>
        </g>
      </symbol>
  </svg>